# xmcd CD database file
#
# Track frame offsets:
#	150
#	12198
#	26741
#	34991
#	40629
#	46424
#	55650
#	66938
#	78422
#	90613
#	98688
#	105756
#	116093
#	126839
#	133841
#	144323
#	155736
#	166979
#	173885
#	178514
#	191383
#	206687
#	219710
#	228431
#	236335
#	249180
#	259749
#
# Disc length: 3609 seconds
#
# Revision: 4
# Processed by: cddbd v1.5.2PL0 Copyright (c) Steve Scherf et al.
# Submitted via: CDex 1.51
#
DISCID=6a0e171b
DTITLE=Hatvani Kiss Gyöngyi - Elküldöm a levelemet
DYEAR=2000
DGENRE=Country
TTITLE0=Elküldöm a levelemet
TTITLE1=A kanyargó Tisza-partján
TTITLE2=Árad a Tisza
TTITLE3=Minek nékem a szombat estét várni
TTITLE4=Cudar ez a világ
TTITLE5=Négy levelû a lóhere
TTITLE6=Hálás szívvel, tisztelettel
TTITLE7=Az a szokás járja
TTITLE8=Ne hidd el, ha azt mondják
TTITLE9=Akinek a szívén bánat ül
TTITLE10=Fagyban, közepében a télnek
TTITLE11=Hiába imádlak, hiába szeretlek
TTITLE12=Kóbor õszi széllel
TTITLE13=Siratom én a régi babámat
TTITLE14=Szegrõl-végre
TTITLE15=Szeret engem a jó Isten
TTITLE16=Mért nem szabad, szeresselek?
TTITLE17=Volt-e már szívedben fájdalom?
TTITLE18=Szálldogál a fecske
TTITLE19=Nincs szebb madár a fecskénél
TTITLE20=Sárbogárd, Dombóvár
TTITLE21=Élt a Maros partján
TTITLE22=Maros vize folyik csendesen
TTITLE23=Ott, ahol a Maros vize
TTITLE24=Vándorfelhõk fenn az égen
TTITLE25=Elmegyek a templom mellett
TTITLE26=Vége, vége, vége már
EXTD=YEAR: 2000
EXTT0=
EXTT1=
EXTT2=
EXTT3=
EXTT4=
EXTT5=
EXTT6=
EXTT7=
EXTT8=
EXTT9=
EXTT10=
EXTT11=
EXTT12=
EXTT13=
EXTT14=
EXTT15=
EXTT16=
EXTT17=
EXTT18=
EXTT19=
EXTT20=
EXTT21=
EXTT22=
EXTT23=
EXTT24=
EXTT25=
EXTT26=
PLAYORDER=
